<svg width="58" height="58" viewBox="0 0 58 58" fill="none" xmlns="http://www.w3.org/2000/svg">
<g clip-path="url(#clip0_293_638)">
<rect width="58" height="58" rx="14.5" fill="#40D5FF"/>
<rect width="58" height="58" rx="14.5" fill="white"/>
<rect width="58" height="58" rx="14.5" fill="#54AFB7"/>
<g clip-path="url(#clip1_293_638)">
<path d="M48.1606 40.1275C46.4383 34.6635 43.1839 29.7152 38.7776 26.0434C36.5482 24.2927 33.6456 23.5824 30.8742 23.46H30.8676C30.3431 23.4665 29.7792 23.4534 29.2743 23.4643C21.6944 23.8425 14.6019 27.4116 8.61536 31.903C8.56509 31.9402 8.55853 32.0145 8.60006 32.0604C11.0699 34.7837 13.3845 37.6272 15.6335 40.5406C15.6685 40.5865 15.7341 40.5953 15.7822 40.5625C20.6147 37.1005 25.6504 33.892 31.06 31.4047C31.1124 31.3807 31.1736 31.4047 31.1999 31.455C32.9178 34.7902 27.1957 40.2019 24.8483 42.1667C19.6093 46.4549 13.6118 50.6404 6.66793 51.1999L6.6723 51.2065C5.40461 51.3048 4.12381 51.154 2.89328 50.848C-0.306535 50.0284 -2.82224 47.3051 -3.85169 44.2212C-4.35221 42.6301 -4.34783 40.9231 -4.04621 39.2905C-3.4692 36.3377 -1.99387 33.5051 0.0584712 31.0069C4.7205 24.8457 13.0763 20.7389 22.6102 20.7389C26.3739 20.7389 29.9562 21.3793 33.1976 22.5333C33.2369 22.4437 33.2238 22.4721 33.2828 22.3387C29.2612 20.2231 24.7303 19.0472 20.2125 18.8636C19.2377 18.868 18.2367 18.833 17.275 18.9008C1.07699 19.7357 -12.1397 33.6559 -11.5824 49.9629C-11.5824 49.9782 -11.5758 49.9935 -11.5715 50.0066V50.0153C-11.578 50.0284 -11.578 50.0415 -11.578 50.0568C-11.5715 50.2142 -11.5671 50.3847 -11.5562 50.5311V50.5377C-11.5562 50.6404 -11.5496 50.7606 -11.5474 50.8524C-11.5321 51.1081 -11.519 51.3726 -11.4928 51.6196C-11.484 51.6786 -11.5037 51.7463 -11.4753 51.7988C-11.4753 51.7988 -11.4819 51.8053 -11.484 51.8097C-11.4731 51.8687 -11.4884 51.9387 -11.4556 51.9889V51.9911C-11.4578 52.0042 -11.46 52.0173 -11.46 52.0305C-11.0032 60.1981 -6.59033 67.2118 1.93159 68.486C3.9424 68.7527 5.986 68.7396 8.00993 68.6259C18.8508 67.8325 30.1966 62.1084 37.064 53.6435C40.1414 49.7487 42.4123 45.0146 42.6877 40.0052V39.9986C42.7293 39.6664 42.7074 39.3254 42.7227 38.991C42.7227 38.9801 42.7249 38.9692 42.7292 38.9582C42.7445 38.9211 42.7664 38.956 42.7861 38.9713C42.8495 39.026 42.9172 39.0741 42.9719 39.1353C46.4296 42.9536 48.5912 47.8603 49.0852 52.9812C49.2338 52.9812 49.1835 52.9812 49.3322 52.9856C49.8589 48.6799 49.4545 44.2693 48.1606 40.1275Z" fill="white"/>
<path d="M16.6675 75.9943C8.88215 75.9943 1.68038 73.577 -4.18814 69.4746C1.42247 75.9594 9.71052 80.0596 18.9581 80.0596C33.3682 80.0596 45.4505 70.0975 48.6963 56.6843C42.8627 68.1261 30.7126 75.9943 16.6675 75.9943Z" fill="white"/>
</g>
<g filter="url(#filter0_b_293_638)">
<rect x="4.35001" y="4.34961" width="49.3" height="21.75" rx="10.15" fill="#D6D6D6" fill-opacity="0.2"/>
</g>
<path d="M19.9758 15.5351L18.1729 12.0421L16.4452 15.5351H19.9758ZM21.9289 19.3411L21.0525 17.6384H15.4061L14.5672 19.3411H11.6L16.3075 10.0264H20.0885L25.0714 19.3411H21.9289Z" fill="white"/>
<path d="M32.4968 16.2362H28.4278V19.3411H25.5107V10.0264H32.4968C35.8396 10.0264 36.8412 11.3535 36.8412 13.0562V13.1814C36.8412 14.8465 35.8271 16.2362 32.4968 16.2362ZM28.4278 12.1422V14.1454H32.4467C33.3606 14.1454 33.7988 13.7948 33.7988 13.1688V13.1313C33.7988 12.5053 33.3732 12.1422 32.4467 12.1422H28.4278Z" fill="white"/>
<path d="M43.6832 10.0283V19.3431H40.7661V10.0283H43.6832Z" fill="white"/>
<rect x="38.0534" y="10.0254" width="8.34659" height="2.08664" fill="white"/>
<rect x="38.0534" y="17.2559" width="8.34659" height="2.08664" fill="white"/>
</g>
<defs>
<filter id="filter0_b_293_638" x="-10.15" y="-10.1504" width="78.3" height="50.75" filterUnits="userSpaceOnUse" color-interpolation-filters="sRGB">
<feFlood flood-opacity="0" result="BackgroundImageFix"/>
<feGaussianBlur in="BackgroundImageFix" stdDeviation="7.25"/>
<feComposite in2="SourceAlpha" operator="in" result="effect1_backgroundBlur_293_638"/>
<feBlend mode="normal" in="SourceGraphic" in2="effect1_backgroundBlur_293_638" result="shape"/>
</filter>
<clipPath id="clip0_293_638">
<rect width="58" height="58" rx="14.5" fill="white"/>
</clipPath>
<clipPath id="clip1_293_638">
<rect width="61.1572" height="61.2019" fill="white" transform="translate(-11.6 18.8506)"/>
</clipPath>
</defs>
</svg>
